<svg xmlns="http://www.w3.org/2000/svg" version="1.1" xmlns:xlink="http://www.w3.org/1999/xlink" viewBox="0 0 9.918962602510096 3.36623397363747"><g transform="matrix(0.7525112607694537,0,0,0.7525112607694537,3.309563653996621,1.2778896728943843)"><g transform="matrix(1,0,0,1,0,0)" clip-path="url(#SvgjsClipPath140298)"><g clip-path="url(#a0d8dc628-a259-4628-8cfc-490125368af4871ae154-85dd-4567-af02-3077fe9597df)"><path d=" M -0.6504076182783451 0.06684490806501053 C -0.6504076182783451 0.05465931300446136 -0.6507679315614496 0.042558791913534066 -0.6514235015626539 0.030538340441074396 C -0.6635784718637052 0.028878011737530795 -0.6756248678233274 0.02650181877670643 -0.6874998690334952 0.023422153099759813 C -0.6885758045316548 0.03104878425880586 -0.6902922969775553 0.03819499770704582 -0.6930747162193074 0.04490583260486769 C -0.6973703759673793 0.05546835370457781 -0.7050449917642152 0.06430973636068982 -0.7148986916029028 0.07004769280371748 C -0.7160346793149128 0.2921708231353546 -0.8392918482435892 0.4852837298259225 -1.0208847385771205 0.5860463403163363 C -1.0110161581009796 0.6038067825626974 -1.0045255146539436 0.6243446396996559 -1.0044554537377843 0.6470043417260076 C -1.0044554537377843 0.648145333789172 -1.004515505951635 0.6493013389057993 -1.0045505364097147 0.6504473353201177 C -0.7941175703743579 0.5407219319124785 -0.6504576617898874 0.3206005420425333 -0.6504076182783451 0.06684490806501053 M -0.6950013914136857 -0.005538027029767134 C -0.6843621408597935 -0.002130063893736711 -0.6695792875501989 0.0016332081742439497 -0.6534002202685745 0.004185427262901054 C -0.6570349116968752 -0.03440445648153956 -0.6640870126353005 -0.07259566092247727 -0.6744735429790352 -0.10993880080930474 C -0.7015170566164926 -0.11783566693068048 -0.7271843736865364 -0.12748906030718937 -0.7508299328902717 -0.13718749284408643 C -0.7313329807933928 -0.08392618350962033 -0.7192925119163163 -0.027071750046417264 -0.7158795444291317 0.03212972410811943 C -0.7136776299212706 0.02563407630992931 -0.7122964290027032 0.01697154446195781 -0.7117809808338178 0.006102093754971061 L -0.7109552628933695 -0.010622447802464463 Z M -0.7423475576838523 -0.1615486742628764 C -0.7237563931458892 -0.15387199959228814 -0.7040092234912991 -0.14633544675401833 -0.6835414272704996 -0.1397146901769724 C -0.770166745750215 -0.4018726297424468 -1.0171214665091395 -0.5910471120746359 -1.3083246601737626 -0.5910671294792527 C -1.5999682367399584 -0.5910471120746359 -1.8472232185681368 -0.40129712935971035 -1.933498232467056 -0.13852865895341998 C -1.9117142918926942 -0.14542465484394845 -1.890726043151855 -0.15340659493494463 -1.871028917008807 -0.1615386655605679 C -1.8649085955471842 -0.16406586289345387 -1.85892839591788 -0.1668032429748174 -1.8528831397235703 -0.16944053603309644 C -1.823118060664107 -0.23785418691407828 -1.7807503005814684 -0.30005875737318977 -1.727989547967461 -0.35280997102637945 C -1.6204860764722997 -0.46026339900999824 -1.4723172474978683 -0.5266210953150834 -1.3083246601737626 -0.526636108368546 C -1.1443370772008115 -0.5266210953150834 -0.9961682482263801 -0.46026339900999824 -0.8886647767312188 -0.35280997102637923 C -0.8363651712618325 -0.30051859657615637 -0.7942748428818363 -0.23893342516156418 -0.7645518637551689 -0.17121207634169366 C -0.7571654414515261 -0.16796425244259883 -0.7498340670105799 -0.16464136327619028 -0.7423475576838523 -0.1615486742628764 M -1.866374870435374 -0.13563113963512108 C -1.8899954078833376 -0.12603779847246283 -1.9155526292279885 -0.11658958349327725 -1.9424510166819728 -0.10892792187615163 C -1.9527307180424038 -0.07172878502725877 -1.9597071611710106 -0.03369494529203987 -1.9632991435904938 0.004730901538712362 C -1.9457839145506899 0.002198699854671915 -1.9297199473456126 -0.0018948593894879684 -1.9183450571720486 -0.005538027029767134 L -1.9023911856923645 -0.01062745215361871 L -1.901565467751917 0.006112102457279445 C -1.9013002371407426 0.01172198010117087 -1.9007897933230113 0.01669130079732095 -1.9000841798102648 0.02116519072920231 C -1.8960333496860051 -0.03239043079221349 -1.8846922611382677 -0.0851426556107584 -1.866374870435374 -0.1356311396351208 M -1.9258565882545475 0.023432161802068308 C -1.9388124804866151 0.026797844808145954 -1.9519732553457882 0.02931866895238988 -1.9652558448917972 0.030978723342646508 C -1.9659023979096277 0.042923239561722726 -1.9662294657216177 0.05488290797259976 -1.9662366977180263 0.06684490806501109 C -1.9661966629087926 0.32500937540940955 -1.817522394467784 0.5483535674226789 -1.6010942157496602 0.6560672216663177 C -1.601444520330456 0.6522288843310236 -1.6016697161323965 0.6483304947818784 -1.6016697161323965 0.6443220095073408 C -1.6016697161323965 0.642195160266793 -1.6016246769720084 0.64003828491932 -1.6015095768954613 0.6378864139230014 C -1.6006838589550132 0.6199558237373965 -1.5959147123050323 0.6039669217996328 -1.5889036163379564 0.5898796733004763 C -1.7748402834733592 0.48991275464358486 -1.9014303502707524 0.29375720245124537 -1.9018006722561656 0.06794086096778684 C -1.9100649592639687 0.062216412908770446 -1.916487441921587 0.05421351965673549 -1.9202867454198898 0.04490583260486769 C -1.9230691646616414 0.03819499770704582 -1.9247756484052336 0.03105378860996011 -1.9258565882545473 0.02343216180206842 M -1.575772198909258 0.6391375017115588 C -1.5758547421323819 0.6408644246123274 -1.5758947890562072 0.6425931168241235 -1.5758923033369594 0.6443220095073408 C -1.575882294634651 0.653279798073412 -1.5747312938691782 0.6615820166382789 -1.5727295534074863 0.6693988131411854 C -1.5576517091070032 0.6760349356295929 -1.5423273586422066 0.6820962337273793 -1.5267896098116602 0.6875696121821924 L -1.4965483157866482 0.6982138670872398 C -1.5028988374013657 0.6852075584373967 -1.506892309622441 0.67037466161626 -1.506937348782829 0.6548011208242976 C -1.5069423531339834 0.6439416788196193 -1.5049556257257541 0.6327669626922243 -1.5003566270150168 0.6220276251152477 C -1.4916490560066573 0.601614876757145 -1.476605976437043 0.5860263229117195 -1.459365986710722 0.5740358975461852 C -1.4558185760627325 0.571571923263346 -1.4521812638237543 0.5692399704419357 -1.4484615055456556 0.5670448189837265 C -1.4752648103277095 0.563721929817318 -1.500731953351584 0.5591429485111978 -1.525483474160404 0.554003479875804 C -1.527605655641537 0.55688046096115 -1.5296155759495464 0.55983858287626 -1.5315087129500964 0.562871190121099 C -1.5402829892730032 0.5771297425142699 -1.5462470472318026 0.5929359399812679 -1.5490789898525965 0.6094366776112057 C -1.554742505942792 0.6069016842310142 -1.5603664035367077 0.6042790894467853 -1.565948657593505 0.6015698375967566 C -1.571818973089104 0.6132658666260953 -1.5751658122842231 0.6260650117293869 -1.5757721989092577 0.6391375017115588 M -1.076973506313726 0.6828705264483717 C -1.0617406951533193 0.6771427398019703 -1.0467271809601801 0.6708478807823652 -1.0319643720325855 0.6639991182457721 C -1.0308734234809624 0.6582040796091737 -1.0302278621820669 0.6525191366979688 -1.0302278621820669 0.6470043417260078 C -1.0301578012659076 0.629404038716582 -1.0354574091382367 0.6127695754799227 -1.04371959289387 0.5980818048422587 C -1.052261000130912 0.6023791673115826 -1.060906092351585 0.6064672730712137 -1.069647136223933 0.6103424651701213 C -1.0756383543208443 0.5987578115029006 -1.0830924081681765 0.5879904710853414 -1.0918264205394796 0.5783046090807431 C -1.0968958282587142 0.5686662287576969 -1.1040520504092626 0.5603139666812877 -1.1124793777529853 0.5542136626242815 C -1.1187592469788357 0.5496555868118309 -1.125780516022555 0.5462186019652548 -1.1332324219895757 0.5440548297811953 C -1.1767702770313737 0.5154749803393899 -1.226223275137471 0.4990406911488998 -1.2756112166785636 0.4905433028890178 C -1.2875966376929435 0.48698520921836064 -1.300137541685443 0.48498346875666876 -1.312908645831037 0.48498346875666876 C -1.3146001165211665 0.48498346875666876 -1.3162715698066794 0.4850235035659025 -1.3179280100387292 0.48509356448206176 C -1.3218614300459537 0.4847582729547284 -1.32578484135087 0.4844630162366288 -1.329693239602323 0.48421279867891753 C -1.337822750061839 0.48368039435321264 -1.3459675480281241 0.48341502081291776 -1.354114473234966 0.48341710684539496 C -1.384846193673088 0.48345213730347436 -1.418120124497561 0.4871253310506789 -1.4497426194411385 0.49865035175887007 C -1.4629531839423016 0.5034107039945974 -1.4755521583241578 0.5097219502282817 -1.4872752530978608 0.5174516990453109 C -1.4862693785158605 0.5176268513357085 -1.4852835213384772 0.517827025381878 -1.4842726424053228 0.5179971733211217 C -1.4195613776299791 0.5289767197535016 -1.3425994612290815 0.5295071809758498 -1.2731290585060655 0.5381546997703588 C -1.240150384399692 0.5422832894725982 -1.2072717973164033 0.5515563521613858 -1.1788921219207669 0.5659538704321043 C -1.1505724987389814 0.5803613974051318 -1.1264865566336741 0.5999584365250947 -1.112324242867204 0.625540679625517 C -1.1051429989608847 0.6385870230845936 -1.1020002664360282 0.6526642628814414 -1.1020102751383367 0.6662010327536327 C -1.1020338424885638 0.6756195248437133 -1.1035263986900359 0.6849767041067869 -1.1064341215586757 0.6939351468503732 Z" fill="#006fbf" transform="matrix(1,0,0,1,0,0)" fill-rule="nonzero"></path></g><g clip-path="url(#a0d8dc628-a259-4628-8cfc-490125368af4871ae154-85dd-4567-af02-3077fe9597df)"><path d=" M -0.40025511713186734 -0.12422121900347755 C -0.41300119952169045 -0.1364318358197979 -0.4316223901665788 -0.13156760649788674 -0.44414828110561566 -0.1285750045076574 C -0.4579753033447522 -0.12528214144817423 -0.47152708627040596 -0.11902169815423297 -0.4836976682774927 -0.11542356967434186 C -0.5755124989041438 -0.08808479931878521 -0.6714058757214927 -0.11836612815302894 -0.747251821814997 -0.1496333141646557 C -0.79722026808998 -0.17026625397354456 -0.8443362342070522 -0.19456237882732952 -0.8912620349802638 -0.21820293367991034 C -0.9395640323208883 -0.24246903242676987 -0.9844430534720197 -0.27009805514927177 -1.0406619343386356 -0.2814229018112935 C -1.0730400863065013 -0.2879435713652547 -1.098457185818834 -0.26744074468637585 -1.1144010485962093 -0.25239766511676154 C -1.1425455194875969 -0.22606977369435938 -1.1588847260061568 -0.19153975073017476 -1.1750788063412438 -0.15320141653762143 C -1.1911027387370872 -0.11507826944470001 -1.208137550066085 -0.07360220707844467 -1.2592720101600035 -0.07590921296054454 C -1.2584813226776355 -0.1239810101480745 -1.2574454219887097 -0.17197273771713684 -1.2558290165658934 -0.2197542825377215 C -1.255358607557396 -0.23302081744758435 -1.2581710529060728 -0.25423926634151806 -1.2548731854954358 -0.26384762055763894 C -1.2535670498441818 -0.2677109796487042 -1.2441838914300012 -0.2731356962998892 -1.2396299318796522 -0.277119159818656 C -1.2342902891980891 -0.28183325860594033 -1.228230019950317 -0.28716789693634914 -1.2253975571970233 -0.2912714648828174 C -1.180483505587812 -0.3548367332438424 -1.2357315423305073 -0.4335351594952578 -1.3149053819415746 -0.4263839416958637 C -1.3770143841167188 -0.4207440379450468 -1.4198516299969244 -0.3508582740762298 -1.3844558542830583 -0.2957053200054649 C -1.3800670383207987 -0.28891941984032943 -1.373381225178748 -0.28110262333742275 -1.3663250900512844 -0.27534261515890446 C -1.3610104691254923 -0.2710238601128042 -1.3534739162872222 -0.26835654094759986 -1.3520176501013417 -0.26384762055763894 C -1.3489399741414903 -0.25443944038768723 -1.3510818364355006 -0.23398165286919637 -1.3510818364355006 -0.22063504834086595 C -1.3510818364355006 -0.17649667116056045 -1.349170174294585 -0.13098209741284184 -1.349170174294585 -0.08993140489469598 C -1.349170174294585 -0.08539245839780973 -1.349110122080734 -0.08079345968707274 -1.3491001133784257 -0.0762445044878779 C -1.4041479760749518 -0.07089985745516059 -1.4216832225193725 -0.11385720776306796 -1.4383377031606486 -0.15320642088877567 C -1.4544867443353477 -0.19153975073017476 -1.4708209465027533 -0.22607477804551362 -1.4988953564779814 -0.25239766511676154 C -1.5149343019272878 -0.26744074468637585 -1.540326379683849 -0.2879435713652547 -1.5727545751632572 -0.2814229018112935 C -1.6289284168694849 -0.27009805514927177 -1.673777411913691 -0.24246903242676987 -1.7220593918496985 -0.21820293367991034 C -1.7689701795694475 -0.19456237882732952 -1.8161512022515245 -0.17026625397354456 -1.8661146441753533 -0.14963831851580994 C -1.9419505815665492 -0.11836612815302894 -2.0378539670862064 -0.08808479931878521 -2.1297138368732456 -0.11542356967434186 C -2.14183437536879 -0.11902169815423297 -2.155436201805986 -0.12528214144817423 -2.1692231892358884 -0.1285750045076574 C -2.1817140497168457 -0.13157261084904087 -2.200410305629048 -0.1364318358197979 -2.2131413749654083 -0.12422121900347755 C -2.215318267717498 -0.10497448446431029 -2.2023219677699637 -0.09119750573671614 -2.1920130043922503 -0.07937222395927146 C -2.160380500746365 -0.042970573663404954 -2.115581549213701 -0.01771361338800803 -2.0523515723800094 -0.015216442162047428 C -2.062620500948489 0.007273111925060638 -2.0433337316000877 0.013768759723250645 -2.026018676606453 0.017256792477748695 C -1.9867044939388252 0.025083597682963976 -1.9400138976698624 0.014904747435260823 -1.9144316545694404 0.0067376463515580465 C -1.9131455363228034 0.03306553777396026 -1.9078259110458573 0.05110121933380385 -1.889840272997556 0.06028420370181531 C -1.8626916679858598 0.07419629991057375 -1.8233124287532272 0.0609848128634074 -1.795858558321123 0.054208921400580534 C -1.7852393251718475 0.08306901450702286 -1.767989326743218 0.10555856859413093 -1.7317077808750532 0.1060139645491659 C -1.7041187929617851 0.10629420821380264 -1.680192990093413 0.0944288916271242 -1.6561671002019565 0.08926940558711349 C -1.650226935381886 0.10017889110333411 -1.6477147511024626 0.10804573111778304 -1.6403233244476654 0.11475156166445077 C -1.613444954398298 0.1394380259082657 -1.5624356030832351 0.12085687007261092 -1.5367082337993403 0.10685469554307647 C -1.5291516635564537 0.10276614065007073 -1.520764371021965 0.09580508819453726 -1.515644919791188 0.09629551460765184 C -1.510020029093834 0.09691605415077631 -1.5025585415228773 0.10629420821380264 -1.4963081069312447 0.11214929906425142 C -1.4833268200371728 0.12419977664363635 -1.4723823040628727 0.13483402284637436 -1.4523699037971083 0.1367106545292105 C -1.413681265023759 0.14031879171141004 -1.3798568555723205 0.12439995068980558 -1.3464678246713002 0.11429616570941581 C -1.3441558144380463 0.22225503315961215 -1.3412482864174389 0.3305041529767536 -1.3415935866470807 0.4346146743893473 C -1.3150705255296637 0.4362561015679345 -1.2896984651777192 0.4389284250842931 -1.2653573011635464 0.44256158402226364 C -1.2626249254333368 0.3344926208466745 -1.2620744468063716 0.22530268301253786 -1.2613237941332371 0.11602767120877922 C -1.229726320945431 0.12610643443339775 -1.1975383343214259 0.1401186176652408 -1.160996562193241 0.1367106545292105 C -1.141014188034402 0.1348390271975286 -1.1300346416020222 0.12419977664363635 -1.1170933895171844 0.1121492990642513 C -1.110807924467472 0.10629420821380264 -1.1033914760569035 0.0969160541507762 -1.0977665853595495 0.09629551460765173 C -1.0926621471822353 0.09580508819453726 -1.084204793731587 0.10276614065007073 -1.0766282060840835 0.10685469554307625 C -1.05092585855596 0.12086187442376506 -0.9999165072408973 0.13943802590826548 -0.9729830893288334 0.11475156166445066 C -0.9656517148878867 0.10804573111778293 -0.9631995828223143 0.10017889110333389 -0.957199365788393 0.08926940558711327 C -0.9331034149807773 0.09442889162712409 -0.9092026338681765 0.10629420821380264 -0.8816586851152965 0.10601396454916578 C -0.8453321000867433 0.10555856859413093 -0.8280770973069596 0.08306901450702286 -0.8175079076692267 0.05420892140058042 C -0.7900440285348143 0.0609848128634074 -0.750664789302181 0.07419629991057364 -0.7234961668858684 0.06028420370181531 C -0.7055405549444922 0.05110121933380374 -0.700215925316392 0.03306553777396026 -0.6989147940162923 0.006742650702712294 C -0.6733075291600994 0.014904747435260823 -0.6265919111353655 0.025088602034118113 -0.5873527937350507 0.017256792477748695 C -0.5700327343902618 0.013768759723250645 -0.5507409606907068 0.007273111925060527 -0.5610148936103403 -0.015216442162047539 C -0.49783496028819085 -0.01771361338800803 -0.45294593043475095 -0.042970573663405065 -0.42130842243771083 -0.07937222395927157 C -0.41106451562500346 -0.09119750573671614 -0.39800816346361834 -0.10497448446431029 -0.40025511713186734 -0.12422121900347755 M -1.7772223546227721 0.3199149459344037 C -1.7938518135082773 0.3637730794500722 -1.750874445795753 0.40621498158909386 -1.7289003398775307 0.42531158559363424 C -1.66673628983969 0.47928851714315535 -1.5835189344960052 0.5143540056808424 -1.4864195090504873 0.5307032209017108 C -1.4202169476311832 0.5418879457314141 -1.3431449355048923 0.5423833764956825 -1.2747204421731104 0.5509358126182611 C -1.2114204044232595 0.558847691793098 -1.1484156233915082 0.5867619625313913 -1.1236140590711463 0.6317560837590699 C -1.1092665843119698 0.6578387619749149 -1.113935643938866 0.6887806651615169 -1.1280679315984103 0.7090633003896096 C -1.1505124465251306 0.7413613827390078 -1.1974682734052673 0.7621944965940657 -1.2387241443207364 0.7793243905949938 C -1.2479121330399021 0.7831577235791338 -1.253206736561077 0.7826272623567854 -1.2545028635100226 0.7898685584769556 C -1.257440417637555 0.8057974082008688 -1.2489330206753648 0.8045963639238536 -1.2404506454689457 0.8083246055337545 C -1.2233707949795598 0.8158211235627906 -1.2121210135848515 0.8240132464022645 -1.1965174466859636 0.8320152038978776 C -1.1534500006526633 0.8127084171448598 -1.1229735021234049 0.7943324397065286 -1.0911308157290416 0.7687552009572609 C -1.0605992693370865 0.7443039412176948 -1.0298825619524246 0.7141126907042272 -1.0199989684228212 0.6703996833720314 C -1.0086040608446403 0.6203711848831976 -1.035747661505182 0.5772336779337381 -1.0656736814074754 0.5518165784214055 C -1.0962953061202065 0.5257389045567149 -1.135789645429387 0.5091895152896775 -1.1789671871880802 0.49556266709671015 C -1.2204232321497188 0.48254134539340465 -1.2683549075049303 0.47169691644218914 -1.3195644328661622 0.46657246086025794 C -1.371459554335524 0.4613779443621675 -1.4288244316164582 0.4634097109307844 -1.4794234261368742 0.4569190674837489 C -1.55311750123406 0.44746584815340906 -1.6210665812061902 0.42955027102126686 -1.674458003670666 0.3980779066123167 C -1.6919482109546988 0.38774892582998677 -1.712786329160911 0.3740620254231686 -1.7166146577938965 0.35503548233478743 C -1.7280345871278486 0.29789580085579337 -1.6507023487415378 0.308480003546989 -1.6041668873583563 0.3128588108069399 C -1.585265453048831 0.31465036852015416 -1.5667243320224102 0.3195145978420654 -1.5514560566508555 0.3268659896876288 C -1.5358024462404254 0.33442756428166975 -1.521915371787438 0.34502678002632814 -1.5057763393150474 0.3489101565220104 C -1.4852885256896313 0.3537493640881506 -1.4602367438115578 0.35055658805175205 -1.4398690346138432 0.34450132315513415 C -1.4258868774889253 0.3402826551321184 -1.407400804325201 0.33409727710549075 -1.4056242596654496 0.32337795693313076 C -1.4027717795075387 0.30657835010838175 -1.4193912296907354 0.2882724335862098 -1.428469122684508 0.27859902280508375 C -1.4397038910257536 0.26665363659993757 -1.4537711221202931 0.25323697115544797 -1.4671527571067031 0.2487280507654871 C -1.4853635909569447 0.24262274235732706 -1.5145589755907207 0.24401395197820286 -1.5373688081516992 0.2452450223621433 C -1.5594329923906978 0.24638101007415325 -1.58511031816305 0.25142039168646246 -1.6103322479803677 0.25315690153698034 C -1.634333116116053 0.25475829390633364 -1.6578535665409324 0.2572704781857571 -1.6797325897872244 0.2619245247591906 C -1.7202027775714797 0.2705520261490826 -1.7636255325367303 0.28398370464703493 -1.7772223546227721 0.3199149459344037 M -1.3367844051878666 0.7630802667483645 C -1.3147552514069476 0.7712273504274503 -1.2928662194583471 0.7794294819692327 -1.270086413004294 0.786996060914428 C -1.270001339034672 0.7117206108525056 -1.268525055444174 0.6377462920906829 -1.2672889807090795 0.5635517818780742 C -1.2906342788435605 0.5616551327906212 -1.3139095160618828 0.5596533923289293 -1.3386610368707026 0.5591029137019639 C -1.3398120376361755 0.5592480398854365 -1.339777007178096 0.5605341581320737 -1.3397069462619369 0.5617902502717853 C -1.338100549541429 0.6283381119207312 -1.3373248751125233 0.6955915870824234 -1.3367844051878666 0.7630802667483645 M -1.588638385726782 0.6384919404126632 C -1.591230639624673 0.6923487675344826 -1.557626421624021 0.7280247869129857 -1.528951489510285 0.7544577697096266 C -1.4971438335740015 0.7836731717480194 -1.4590607212903137 0.8051268251462018 -1.4217382703820691 0.8238380941118666 C -1.3397069462619369 0.8651139824319525 -1.235771577139741 0.8766640248959148 -1.1915731477455849 0.9468600585362941 C -1.184296821167335 0.9584151053514101 -1.1779663169572345 0.9735432588906467 -1.1792624439061798 0.9933755025148585 C -1.1818647065063794 1.0326346373197899 -1.2076671410575874 1.057736462709406 -1.2293710120134813 1.0786196200760063 C -1.2342902891980891 1.083388766725987 -1.2512450309086192 1.0944934219372224 -1.2531166582403013 1.1005887216430743 C -1.256559651834411 1.1121237510535735 -1.2505093912889476 1.1218472053462418 -1.2531166582403013 1.1365599977396768 C -1.2453949444093246 1.141784540344693 -1.2376832392806567 1.1469440263847035 -1.2293710120134813 1.1515430250954406 C -1.1829406420045387 1.1166476844969973 -1.1444822033842839 1.0823078268766733 -1.1257258952582312 1.0267845508204954 C -1.1025907798722276 0.958350048786405 -1.1348238056566209 0.9026366073863665 -1.1775509558114334 0.8659947482350967 C -1.2214090893271021 0.8284220797691406 -1.277652991949489 0.8120778688994268 -1.3304188705196864 0.7904840936689257 C -1.3853516331396654 0.7679545047725838 -1.4437073719491373 0.7501390146635263 -1.4762556718562467 0.7070165207675294 C -1.4917091082205078 0.6864286201190286 -1.5003866531219423 0.6548911991450734 -1.488506323481801 0.6270820197810192 C -1.4734782569656497 0.5918664007087051 -1.4360457103320117 0.5718489960917865 -1.3988934073630108 0.5585924698842324 C -1.4458192081362222 0.5559751942305702 -1.4881209884429254 0.5487739329196335 -1.528951489510285 0.5401114010716621 C -1.5571409995620606 0.5623457332499044 -1.5864965234327717 0.5931124841461082 -1.588638385726782 0.6384919404126628 M -1.274865568356583 1.119870486640321 C -1.2744401985084735 1.0478578735309563 -1.2732291455291498 0.9765809000412635 -1.2719980751452096 0.905228861284257 C -1.2907193528131826 0.8943944410353499 -1.3131638677399025 0.8868979230063139 -1.3349177822073388 0.878775861082999 C -1.334006990297269 0.9474605806748011 -1.333111211440662 1.0161052654573692 -1.3320552933471195 1.084549776193768 C -1.318231305317311 1.094936231165141 -1.3039174523698827 1.1046541532630392 -1.2891629996042147 1.1136700955602314 C -1.2842187006638381 1.116647684496997 -1.2780633487441357 1.120926404733863 -1.274865568356583 1.119870486640321 M -1.488206062412547 0.9769612307289848 C -1.4907132423408163 1.0298672311315007 -1.4629541064883043 1.073565225410234 -1.4302056325350254 1.1096215754764587 C -1.3991986727834185 1.1437762721040756 -1.3606501558423876 1.1630079935897804 -1.3195644328661622 1.1895861025698937 C -1.2856899799031818 1.2114751345184946 -1.2390544314969156 1.246350457712321 -1.2272892019333217 1.2879916636666657 C -1.2219045200913707 1.3070182067550467 -1.229080759646536 1.3243382660998355 -1.2369375909586764 1.3354078908529918 C -1.2443490350180904 1.3458519717118689 -1.2602078238258443 1.3553452258514425 -1.2624097383337056 1.3643780796848273 C -1.2638710088707406 1.3703332575583604 -1.2641962916957654 1.3998138902079273 -1.2624097383337056 1.4048132370110027 C -1.2602928977954662 1.4109285541214713 -1.2528814537360522 1.4109035323657 -1.2501440736546887 1.4162531837495715 C -1.2292859380438594 1.3974368234096681 -1.2136823711449714 1.3847107584244622 -1.199184765851168 1.3643780796848273 C -1.1852026087262504 1.344786044916018 -1.1720111390837011 1.3207601550245613 -1.1720111390837011 1.2888724294698102 C -1.1720111390837011 1.251324782759625 -1.1921286307237042 1.222995150875531 -1.215879281301678 1.1992344915952486 C -1.2375030826391045 1.177625703311285 -1.2672289284952285 1.1609712226700084 -1.2940622593842077 1.14391138958524 C -1.3210807512658937 1.12669642161469 -1.3470333163517287 1.1083955094436722 -1.3704887102116032 1.0868117429154798 C -1.3946146871261442 1.0645623976837748 -1.4173294370151925 1.038329588933303 -1.4240903154245568 1.0059764587212083 C -1.4336186000222102 0.9602917370342456 -1.397962598048324 0.9275732891878925 -1.3748525044180915 0.9110989651881685 C -1.3693277007438218 0.9071705495320981 -1.3580328801887256 0.9025465290655896 -1.3563964573612926 0.8979225085990816 C -1.3542195646092026 0.8916920914120656 -1.3580328801887256 0.885616809110831 -1.3563964573612926 0.8777299516917649 C -1.376563992512838 0.872065026185177 -1.3939140779645522 0.8636477075437625 -1.4126253469302168 0.8566416159278412 C -1.4526751692175166 0.8880889585810203 -1.4855287345450343 0.9216431330701302 -1.488206062412547 0.9769612307289846 M -1.2787089100430313 1.3821185045265711 C -1.2780633487441357 1.3353228168833697 -1.2772226177502253 1.2886872684771038 -1.276757213092882 1.2417014154900414 C -1.2929262716721979 1.2275391017235717 -1.3102012918565986 1.2144427147529524 -1.3301336225038953 1.2037784424432894 C -1.3300535528854276 1.2519653397073665 -1.3296281830373182 1.2998019323906476 -1.3282469821187506 1.346792789728864 C -1.3174075575186892 1.356731431121164 -1.3018139993221096 1.3661896548026582 -1.2900988132700582 1.3750673737502612 C -1.2863655673090029 1.377954884366252 -1.2830176563868232 1.3835097141474468 -1.2787089100430313 1.3821185045265711 M -1.4340339611680113 1.2859598970980484 C -1.4340339611680113 1.3336964027582447 -1.4056242596654496 1.3653889586179815 -1.379586620609993 1.391316501948045 C -1.3514521584209138 1.4194809902440497 -1.318403423398381 1.440304095396799 -1.2917702665555708 1.4633941716224148 C -1.279174314700375 1.4787875557728254 -1.2680096072752884 1.4939957789305292 -1.2618592597067402 1.515214227824463 C -1.249738721211196 1.5574709689707784 -1.2634056042133972 1.616722486636857 -1.2601327585585311 1.668067129479253 C -1.2207385062724354 1.6184339747316037 -1.200595992876661 1.520403739971399 -1.235506346528567 1.4607518742129815 C -1.2446943352477327 1.4450882551002426 -1.253792245646122 1.4337784214916838 -1.2654173533773976 1.4229590142962392 C -1.2989465061107361 1.3915016629407517 -1.3493853613942166 1.3657893067103197 -1.372575524642917 1.326314984805756 C -1.3756582049539228 1.3210253856357352 -1.379676698930769 1.3128182497427987 -1.3804823994666 1.3070182067550467 C -1.3837152103122323 1.2832875735816895 -1.372770694337932 1.268694885615956 -1.3637778753137815 1.2560488902492177 C -1.3585883631668452 1.248757550617505 -1.347924090857182 1.2403352276249369 -1.3461525505485845 1.23322904898593 C -1.3431449355048928 1.2205330101076501 -1.3488549001718686 1.207681836343588 -1.3470933685655797 1.1919131258566102 C -1.3539543339980287 1.1870989400462413 -1.361545934698995 1.1829953720997735 -1.3690774831861106 1.178761691023295 C -1.3687672134145483 1.1769851463635435 -1.3715646457097628 1.1789618650694642 -1.371654724030539 1.1796724829333647 C -1.4008200825573893 1.2056500697749706 -1.4340339611680113 1.2349155153249058 -1.4340339611680113 1.285959897098048 M -1.0299576272197384 0.5049958690224321 C -0.9700605482547637 0.48420278997660793 -0.9140568544877798 0.45709922412530024 -0.8735466318942908 0.4197667645147469 C -0.8578579910257809 0.4052241200605555 -0.8402727010698179 0.38582225063560727 -0.8314149995268314 0.365269380445186 C -0.8170324943095755 0.33205049748340976 -0.8315651300614584 0.30239471254344485 -0.852478313534984 0.28709641106496486 C -0.8947000242232195 0.2562295731456762 -0.9717119841356596 0.25363731924778543 -1.0396310380008644 0.24583053144718703 C -1.063201531937286 0.24307813831236091 -1.086556838774076 0.24075611937679842 -1.112539429966836 0.24230246388345533 C -1.1455581388824434 0.24421913037552512 -1.158909747761928 0.2558792685648803 -1.1775509558114334 0.275681486082167 C -1.1872293709437136 0.28603048426911404 -1.2044843737234976 0.30657835010838075 -1.2003557840212578 0.3222119431141943 C -1.1980687955437748 0.33095454458063334 -1.1791023046692446 0.3379606361965549 -1.1669667531202377 0.34158879078337134 C -1.1447824644535376 0.34820454300926296 -1.1175688028768367 0.351602497442985 -1.0975764200156892 0.3459726023944767 C -1.0737106693611682 0.33924175009203794 -1.054443917417384 0.3203052853244328 -1.0263945291979268 0.3134493242431382 C -1.012032041385288 0.30993126538171467 -0.9962483178448476 0.30933574759436144 -0.979874080868208 0.30815472072196326 C -0.9370418393391564 0.3051921448386592 -0.8767444122818435 0.30211947322996224 -0.8894004163508902 0.35388448156931374 C -0.8948651678113089 0.37614883985448144 -0.9230496735119305 0.39234792454072287 -0.9456443189732773 0.4039279931116103 C -1.0168512315468108 0.4405998783698051 -1.1104426068332136 0.45568799709980734 -1.2074269322021844 0.4610276397813706 C -1.166711531211372 0.47129156399869543 -1.1325318128279835 0.48172063180411007 -1.0984521814676795 0.49881049099580443 C -1.091376028935599 0.5023735890176158 -1.0738107563842527 0.5157902544621054 -1.0668146734706396 0.5163807678983046 C -1.0596684600223998 0.5169712813345038 -1.042088174417591 0.5091895152896766 -1.0299576272197384 0.5049958690224321" fill="#006fbf" transform="matrix(1,0,0,1,0,0)" fill-rule="nonzero"></path></g></g><g><path d=" M 0.165 1.077 Q 0.15 1.077 0.14025 1.06725 Q 0.1305 1.0574999999999999 0.1305 1.0425 L 0.1305 0.06299999999999994 Q 0.1305 0.046499999999999986 0.14025 0.03674999999999984 Q 0.15 0.026999999999999913 0.165 0.026999999999999913 L 0.24 0.026999999999999913 Q 0.258 0.026999999999999913 0.267 0.03600000000000003 Q 0.276 0.04499999999999993 0.279 0.050999999999999934 L 0.5955 0.657 L 0.915 0.050999999999999934 Q 0.918 0.04499999999999993 0.92625 0.03600000000000003 Q 0.9345 0.026999999999999913 0.9525 0.026999999999999913 L 1.026 0.026999999999999913 Q 1.0425 0.026999999999999913 1.0522500000000001 0.03674999999999984 Q 1.062 0.046499999999999986 1.062 0.06299999999999994 L 1.062 1.0425 Q 1.062 1.0574999999999999 1.0522500000000001 1.06725 Q 1.0425 1.077 1.026 1.077 L 0.9525 1.077 Q 0.9375 1.077 0.9277500000000001 1.06725 Q 0.918 1.0574999999999999 0.918 1.0425 L 0.918 0.3045 L 0.6675 0.7934999999999999 Q 0.6615 0.8085 0.6495 0.81675 Q 0.6375000000000001 0.825 0.6195 0.825 L 0.5730000000000001 0.825 Q 0.5535 0.825 0.543 0.81675 Q 0.5325 0.8085 0.525 0.7934999999999999 L 0.273 0.3045 L 0.273 1.0425 Q 0.273 1.0574999999999999 0.26325 1.06725 Q 0.2535 1.077 0.23850000000000002 1.077 L 0.165 1.077 M 1.614009521484375 1.0919999999999999 Q 1.458009521484375 1.0919999999999999 1.366509521484375 0.9967499999999999 Q 1.275009521484375 0.9015 1.266009521484375 0.7364999999999999 Q 1.264509521484375 0.717 1.264509521484375 0.68625 Q 1.264509521484375 0.6555 1.266009521484375 0.6359999999999999 Q 1.272009521484375 0.5295 1.315509521484375 0.4492499999999999 Q 1.359009521484375 0.369 1.434759521484375 0.3254999999999999 Q 1.5105095214843751 0.2819999999999999 1.612509521484375 0.2819999999999999 Q 1.7265095214843749 0.2819999999999999 1.8037595214843751 0.32999999999999996 Q 1.881009521484375 0.3779999999999999 1.9215095214843751 0.4664999999999999 Q 1.962009521484375 0.5549999999999999 1.962009521484375 0.6735 L 1.962009521484375 0.699 Q 1.962009521484375 0.7155 1.952259521484375 0.7244999999999999 Q 1.942509521484375 0.7334999999999999 1.927509521484375 0.7334999999999999 L 1.408509521484375 0.7334999999999999 Q 1.408509521484375 0.7349999999999999 1.408509521484375 0.7394999999999999 Q 1.408509521484375 0.744 1.408509521484375 0.7469999999999999 Q 1.411509521484375 0.8085 1.435509521484375 0.86175 Q 1.459509521484375 0.9149999999999999 1.505259521484375 0.948 Q 1.5510095214843749 0.981 1.612509521484375 0.981 Q 1.666509521484375 0.981 1.702509521484375 0.9644999999999999 Q 1.7385095214843749 0.948 1.761009521484375 0.92775 Q 1.783509521484375 0.9075 1.791009521484375 0.8955 Q 1.8045095214843752 0.8775 1.812009521484375 0.8737499999999999 Q 1.819509521484375 0.8699999999999999 1.836009521484375 0.8699999999999999 L 1.9095095214843751 0.8699999999999999 Q 1.923009521484375 0.8699999999999999 1.9327595214843751 0.87825 Q 1.942509521484375 0.8865 1.941009521484375 0.9015 Q 1.939509521484375 0.9239999999999999 1.917009521484375 0.9562499999999999 Q 1.894509521484375 0.9884999999999999 1.853259521484375 1.02 Q 1.812009521484375 1.0514999999999999 1.751259521484375 1.07175 Q 1.690509521484375 1.0919999999999999 1.614009521484375 1.0919999999999999 M 1.408509521484375 0.6299999999999999 L 1.819509521484375 0.6299999999999999 L 1.819509521484375 0.6255 Q 1.819509521484375 0.5579999999999999 1.794759521484375 0.5055 Q 1.770009521484375 0.45299999999999996 1.723509521484375 0.4222499999999999 Q 1.677009521484375 0.39149999999999996 1.612509521484375 0.39149999999999996 Q 1.548009521484375 0.39149999999999996 1.502259521484375 0.4222499999999999 Q 1.456509521484375 0.45299999999999996 1.432509521484375 0.5055 Q 1.408509521484375 0.5579999999999999 1.408509521484375 0.6255 L 1.408509521484375 0.6299999999999999 M 2.427005859375 1.0919999999999999 Q 2.344505859375 1.0919999999999999 2.284505859375 1.0627499999999999 Q 2.2245058593750002 1.0334999999999999 2.186255859375 0.98325 Q 2.148005859375 0.9329999999999999 2.129255859375 0.8684999999999999 Q 2.110505859375 0.8039999999999999 2.107505859375 0.732 Q 2.106005859375 0.708 2.106005859375 0.6869999999999999 Q 2.106005859375 0.6659999999999999 2.107505859375 0.6419999999999999 Q 2.110505859375 0.5714999999999999 2.129255859375 0.5069999999999999 Q 2.148005859375 0.4424999999999999 2.186255859375 0.39149999999999996 Q 2.2245058593750002 0.3404999999999999 2.284505859375 0.3112499999999999 Q 2.344505859375 0.2819999999999999 2.427005859375 0.2819999999999999 Q 2.515505859375 0.2819999999999999 2.574005859375 0.3134999999999999 Q 2.632505859375 0.345 2.6700058593750002 0.39149999999999996 L 2.6700058593750002 0.046499999999999986 Q 2.6700058593750002 0.03149999999999986 2.679755859375 0.021749999999999936 Q 2.689505859375 0.01200000000000001 2.7045058593749998 0.01200000000000001 L 2.776505859375 0.01200000000000001 Q 2.791505859375 0.01200000000000001 2.801255859375 0.021749999999999936 Q 2.8110058593750002 0.03149999999999986 2.8110058593750002 0.046499999999999986 L 2.8110058593750002 1.0425 Q 2.8110058593750002 1.0574999999999999 2.801255859375 1.06725 Q 2.791505859375 1.077 2.776505859375 1.077 L 2.709005859375 1.077 Q 2.692505859375 1.077 2.683505859375 1.06725 Q 2.674505859375 1.0574999999999999 2.674505859375 1.0425 L 2.674505859375 0.9794999999999999 Q 2.637005859375 1.0274999999999999 2.5770058593750003 1.05975 Q 2.5170058593749998 1.0919999999999999 2.427005859375 1.0919999999999999 M 2.458505859375 0.9704999999999999 Q 2.533505859375 0.9704999999999999 2.578505859375 0.9359999999999999 Q 2.6235058593750002 0.9015 2.646005859375 0.84825 Q 2.668505859375 0.7949999999999999 2.6700058593750002 0.7394999999999999 Q 2.671505859375 0.7155 2.671505859375 0.68175 Q 2.671505859375 0.6479999999999999 2.6700058593750002 0.6239999999999999 Q 2.668505859375 0.5714999999999999 2.645255859375 0.5205 Q 2.622005859375 0.4694999999999999 2.5762558593750002 0.4365 Q 2.530505859375 0.40349999999999997 2.458505859375 0.40349999999999997 Q 2.382005859375 0.40349999999999997 2.337005859375 0.4372499999999999 Q 2.292005859375 0.471 2.272505859375 0.5257499999999999 Q 2.253005859375 0.5805 2.250005859375 0.6435 Q 2.248505859375 0.6869999999999999 2.250005859375 0.7304999999999999 Q 2.253005859375 0.7934999999999999 2.272505859375 0.84825 Q 2.292005859375 0.9029999999999999 2.337005859375 0.93675 Q 2.382005859375 0.9704999999999999 2.458505859375 0.9704999999999999 M 3.0689619140625 1.077 Q 3.0539619140625 1.077 3.0442119140625 1.06725 Q 3.0344619140625 1.0574999999999999 3.0344619140625 1.0425 L 3.0344619140625 0.3314999999999999 Q 3.0344619140625 0.3164999999999999 3.0442119140625 0.30674999999999997 Q 3.0539619140625 0.29699999999999993 3.0689619140625 0.29699999999999993 L 3.1409619140625 0.29699999999999993 Q 3.1559619140625 0.29699999999999993 3.1657119140625 0.30674999999999997 Q 3.1754619140625 0.3164999999999999 3.1754619140625 0.3314999999999999 L 3.1754619140625 1.0425 Q 3.1754619140625 1.0574999999999999 3.1657119140625 1.06725 Q 3.1559619140625 1.077 3.1409619140625 1.077 L 3.0689619140625 1.077 M 3.0569619140625 0.15149999999999997 Q 3.0419619140625 0.15149999999999997 3.0322119140625 0.14174999999999993 Q 3.0224619140625 0.1319999999999999 3.0224619140625 0.11699999999999999 L 3.0224619140625 0.03600000000000003 Q 3.0224619140625 0.020999999999999908 3.0322119140625 0.010499999999999954 Q 3.0419619140625 0 3.0569619140625 0 L 3.1514619140625 0 Q 3.1664619140625 0 3.1769619140625 0.010499999999999954 Q 3.1874619140625002 0.020999999999999908 3.1874619140625002 0.03600000000000003 L 3.1874619140625002 0.11699999999999999 Q 3.1874619140625002 0.1319999999999999 3.1769619140625 0.14174999999999993 Q 3.1664619140625 0.15149999999999997 3.1514619140625 0.15149999999999997 L 3.0569619140625 0.15149999999999997 M 3.6764406738281252 1.0919999999999999 Q 3.592440673828125 1.0919999999999999 3.532440673828125 1.071 Q 3.472440673828125 1.05 3.434940673828125 1.02 Q 3.397440673828125 0.99 3.378690673828125 0.96 Q 3.359940673828125 0.9299999999999999 3.358440673828125 0.9119999999999999 Q 3.356940673828125 0.8955 3.368940673828125 0.8865 Q 3.380940673828125 0.8775 3.392940673828125 0.8775 L 3.460440673828125 0.8775 Q 3.467940673828125 0.8775 3.473190673828125 0.8797499999999999 Q 3.478440673828125 0.8819999999999999 3.487440673828125 0.8925 Q 3.506940673828125 0.9135 3.530940673828125 0.9344999999999999 Q 3.554940673828125 0.9555 3.590190673828125 0.969 Q 3.625440673828125 0.9824999999999999 3.677940673828125 0.9824999999999999 Q 3.754440673828125 0.9824999999999999 3.803940673828125 0.9532499999999999 Q 3.853440673828125 0.9239999999999999 3.853440673828125 0.867 Q 3.853440673828125 0.8294999999999999 3.833190673828125 0.8069999999999999 Q 3.812940673828125 0.7845 3.761190673828125 0.7665 Q 3.709440673828125 0.7484999999999999 3.619440673828125 0.7289999999999999 Q 3.529440673828125 0.708 3.4769406738281248 0.6772499999999999 Q 3.424440673828125 0.6465 3.401940673828125 0.60375 Q 3.379440673828125 0.5609999999999999 3.379440673828125 0.5069999999999999 Q 3.379440673828125 0.4514999999999999 3.412440673828125 0.39974999999999994 Q 3.445440673828125 0.348 3.509190673828125 0.31499999999999995 Q 3.572940673828125 0.2819999999999999 3.668940673828125 0.2819999999999999 Q 3.7469406738281252 0.2819999999999999 3.802440673828125 0.3015 Q 3.857940673828125 0.32099999999999995 3.893940673828125 0.35024999999999995 Q 3.929940673828125 0.37949999999999995 3.947940673828125 0.4079999999999999 Q 3.965940673828125 0.4365 3.967440673828125 0.45599999999999996 Q 3.9689406738281248 0.471 3.9584406738281253 0.4807499999999999 Q 3.947940673828125 0.49049999999999994 3.9344406738281252 0.49049999999999994 L 3.871440673828125 0.49049999999999994 Q 3.860940673828125 0.49049999999999994 3.854190673828125 0.486 Q 3.847440673828125 0.48149999999999993 3.8414406738281253 0.4754999999999999 Q 3.826440673828125 0.45599999999999996 3.806190673828125 0.4365 Q 3.785940673828125 0.4169999999999999 3.753690673828125 0.40425 Q 3.721440673828125 0.39149999999999996 3.668940673828125 0.39149999999999996 Q 3.5939406738281248 0.39149999999999996 3.556440673828125 0.42299999999999993 Q 3.518940673828125 0.4544999999999999 3.518940673828125 0.5025 Q 3.518940673828125 0.5309999999999999 3.535440673828125 0.5535 Q 3.551940673828125 0.576 3.598440673828125 0.594 Q 3.644940673828125 0.6119999999999999 3.736440673828125 0.633 Q 3.835440673828125 0.6525 3.892440673828125 0.6855 Q 3.949440673828125 0.7184999999999999 3.973440673828125 0.762 Q 3.997440673828125 0.8054999999999999 3.997440673828125 0.8624999999999999 Q 3.997440673828125 0.9255 3.961440673828125 0.978 Q 3.925440673828125 1.0305 3.853440673828125 1.06125 Q 3.7814406738281248 1.0919999999999999 3.6764406738281252 1.0919999999999999 M 4.280947265625 1.362 Q 4.268947265625 1.362 4.259947265625 1.353 Q 4.250947265625 1.3439999999999999 4.250947265625 1.3319999999999999 Q 4.250947265625 1.326 4.252447265625 1.3199999999999998 Q 4.253947265625 1.314 4.258447265625 1.305 L 4.3739472656250005 1.0305 L 4.087447265625 0.354 Q 4.079947265625 0.33599999999999997 4.079947265625 0.3284999999999999 Q 4.079947265625 0.31499999999999995 4.088947265625 0.30599999999999994 Q 4.097947265625 0.29699999999999993 4.111447265625 0.29699999999999993 L 4.184947265625 0.29699999999999993 Q 4.201447265625 0.29699999999999993 4.209697265625 0.3045 Q 4.217947265625 0.31199999999999994 4.220947265625 0.3224999999999999 L 4.448947265625 0.8684999999999999 L 4.682947265625 0.3224999999999999 Q 4.687447265625 0.31199999999999994 4.695697265625 0.3045 Q 4.703947265625 0.29699999999999993 4.720447265625 0.29699999999999993 L 4.790947265625 0.29699999999999993 Q 4.804447265625 0.29699999999999993 4.813447265625 0.30599999999999994 Q 4.822447265625 0.31499999999999995 4.822447265625 0.32699999999999996 Q 4.822447265625 0.3344999999999999 4.814947265625 0.354 L 4.388947265625 1.3365 Q 4.384447265625 1.347 4.376197265625 1.3545 Q 4.367947265625 1.362 4.351447265625 1.362 L 4.280947265625 1.362 M 5.0069501953125 1.077 Q 4.9919501953125 1.077 4.9822001953125 1.06725 Q 4.9724501953125 1.0574999999999999 4.9724501953125 1.0425 L 4.9724501953125 0.3314999999999999 Q 4.9724501953125 0.3164999999999999 4.9822001953125 0.30674999999999997 Q 4.9919501953125 0.29699999999999993 5.0069501953125 0.29699999999999993 L 5.0774501953125 0.29699999999999993 Q 5.0924501953125 0.29699999999999993 5.1022001953125 0.30674999999999997 Q 5.1119501953125 0.3164999999999999 5.1119501953125 0.3314999999999999 L 5.1119501953125 0.39749999999999996 Q 5.1509501953125 0.3464999999999999 5.2102001953125 0.3142499999999999 Q 5.2694501953125 0.2819999999999999 5.3624501953125 0.2819999999999999 Q 5.4599501953125 0.2819999999999999 5.5282001953125 0.32475 Q 5.5964501953125 0.36749999999999994 5.6317001953125 0.4432499999999999 Q 5.6669501953125 0.5189999999999999 5.6669501953125 0.6194999999999999 L 5.6669501953125 1.0425 Q 5.6669501953125 1.0574999999999999 5.6572001953125 1.06725 Q 5.6474501953125 1.077 5.6324501953125 1.077 L 5.5574501953125 1.077 Q 5.5424501953125 1.077 5.5327001953125 1.06725 Q 5.5229501953125 1.0574999999999999 5.5229501953125 1.0425 L 5.5229501953125 0.627 Q 5.5229501953125 0.5219999999999999 5.4719501953125 0.46275 Q 5.4209501953125 0.40349999999999997 5.3219501953125 0.40349999999999997 Q 5.2289501953125 0.40349999999999997 5.1727001953125 0.46275 Q 5.1164501953125 0.5219999999999999 5.1164501953125 0.627 L 5.1164501953125 1.0425 Q 5.1164501953125 1.0574999999999999 5.1067001953125 1.06725 Q 5.0969501953125 1.077 5.0819501953125 1.077 L 5.0069501953125 1.077 M 6.196477294921875 1.0919999999999999 Q 6.089977294921875 1.0919999999999999 6.012727294921875 1.0507499999999999 Q 5.935477294921875 1.0095 5.893477294921875 0.93225 Q 5.851477294921875 0.855 5.848477294921875 0.7469999999999999 Q 5.846977294921875 0.7244999999999999 5.846977294921875 0.6869999999999999 Q 5.846977294921875 0.6495 5.848477294921875 0.627 Q 5.851477294921875 0.5189999999999999 5.893477294921875 0.44175 Q 5.935477294921875 0.36449999999999994 6.012727294921875 0.3232499999999999 Q 6.089977294921875 0.2819999999999999 6.196477294921875 0.2819999999999999 Q 6.283477294921875 0.2819999999999999 6.3457272949218755 0.30599999999999994 Q 6.407977294921875 0.32999999999999996 6.448477294921875 0.36749999999999994 Q 6.488977294921875 0.4049999999999999 6.509227294921875 0.4484999999999999 Q 6.529477294921875 0.492 6.530977294921875 0.5309999999999999 Q 6.5324772949218755 0.5459999999999999 6.521977294921875 0.5549999999999999 Q 6.511477294921875 0.564 6.496477294921875 0.564 L 6.424477294921875 0.564 Q 6.409477294921875 0.564 6.401977294921875 0.5572499999999999 Q 6.394477294921875 0.5505 6.386977294921875 0.5339999999999999 Q 6.359977294921875 0.4604999999999999 6.313477294921875 0.4305 Q 6.266977294921875 0.40049999999999997 6.197977294921875 0.40049999999999997 Q 6.107977294921875 0.40049999999999997 6.051727294921875 0.45599999999999996 Q 5.995477294921875 0.5115 5.990977294921875 0.6345 Q 5.989477294921875 0.6884999999999999 5.990977294921875 0.7394999999999999 Q 5.995477294921875 0.864 6.051727294921875 0.91875 Q 6.107977294921875 0.9734999999999999 6.197977294921875 0.9734999999999999 Q 6.266977294921875 0.9734999999999999 6.313477294921875 0.9435 Q 6.359977294921875 0.9135 6.386977294921875 0.84 Q 6.394477294921875 0.8234999999999999 6.401977294921875 0.816 Q 6.409477294921875 0.8085 6.424477294921875 0.8085 L 6.496477294921875 0.8085 Q 6.511477294921875 0.8085 6.521977294921875 0.8182499999999999 Q 6.5324772949218755 0.828 6.530977294921875 0.843 Q 6.529477294921875 0.8744999999999999 6.517477294921875 0.9075 Q 6.505477294921875 0.9404999999999999 6.479227294921875 0.97425 Q 6.452977294921875 1.008 6.4139772949218745 1.03425 Q 6.374977294921875 1.0605 6.3209772949218745 1.07625 Q 6.266977294921875 1.0919999999999999 6.196477294921875 1.0919999999999999" fill="#006fbf" fill-rule="nonzero"></path></g><g></g></g><defs><clipPath id="SvgjsClipPath140298"><path d=" M -2.2133826632217573 -0.5910671294792531 h 1.8133826632217573 v 2.259134258958506 h -1.8133826632217573 Z"></path></clipPath><clipPath id="a0d8dc628-a259-4628-8cfc-490125368af4871ae154-85dd-4567-af02-3077fe9597df"><path d=" M -2.2133815838208117 1.668067129479254 L -0.39999989522300194 1.668067129479254 L -0.39999989522300194 -0.5910671294792528 L -2.2133815838208117 -0.5910671294792528 Z"></path></clipPath></defs></svg>